<svg width="24" height="25" viewBox="0 0 24 25" fill="none" xmlns="http://www.w3.org/2000/svg">
<g clip-path="url(#clip0_467_39)">
<path d="M20 21.5067C18.61 21.5067 17.22 21.0367 16 20.1867C13.56 21.8967 10.44 21.8967 8.00001 20.1867C6.78001 21.0367 5.39001 21.5067 4.00001 21.5067H2.00001V23.5067H4.00001C5.38001 23.5067 6.74001 23.1567 8.00001 22.5167C10.52 23.8067 13.48 23.8067 16 22.5167C17.26 23.1667 18.62 23.5067 20 23.5067H22V21.5067H20ZM3.95001 19.5067H4.00001C5.60001 19.5067 7.02001 18.6267 8.00001 17.5067C8.98001 18.6267 10.4 19.5067 12 19.5067C13.6 19.5067 15.02 18.6267 16 17.5067C16.98 18.6267 18.4 19.5067 20 19.5067H20.05L21.94 12.8267C22.02 12.5667 22 12.2867 21.88 12.0467C21.76 11.8067 21.54 11.6267 21.28 11.5467L20 11.1267V6.50668C20 5.40668 19.1 4.50668 18 4.50668H15V1.50668H9.00001V4.50668H6.00001C4.90001 4.50668 4.00001 5.40668 4.00001 6.50668V11.1267L2.71001 11.5467C2.45001 11.6267 2.23001 11.8067 2.11001 12.0467C1.99001 12.2867 1.96001 12.5667 2.05001 12.8267L3.95001 19.5067ZM6.00001 6.50668H18V10.4767L12 8.50668L6.00001 10.4767V6.50668Z" fill="#7B86E8"/>
</g>
<defs>
<clipPath id="clip0_467_39">
<rect width="24" height="24" fill="white" transform="translate(0 0.506683)"/>
</clipPath>
</defs>
</svg>
