<svg width="24" height="25" viewBox="0 0 24 25" fill="none" xmlns="http://www.w3.org/2000/svg">
<g clip-path="url(#clip0_476_53)">
<path d="M21.95 11.4967C20.16 11.4667 18.25 9.54669 19.27 7.27669C16.29 8.27669 13.5 5.68669 14.08 2.71669C6.95 1.21669 2 7.08669 2 12.5067C2 18.0267 6.48 22.5067 12 22.5067C17.89 22.5067 22.54 17.4267 21.95 11.4967ZM8.5 15.5067C7.67 15.5067 7 14.8367 7 14.0067C7 13.1767 7.67 12.5067 8.5 12.5067C9.33 12.5067 10 13.1767 10 14.0067C10 14.8367 9.33 15.5067 8.5 15.5067ZM10.5 10.5067C9.67 10.5067 9 9.83669 9 9.00669C9 8.17669 9.67 7.50669 10.5 7.50669C11.33 7.50669 12 8.17669 12 9.00669C12 9.83669 11.33 10.5067 10.5 10.5067ZM15 16.5067C14.45 16.5067 14 16.0567 14 15.5067C14 14.9567 14.45 14.5067 15 14.5067C15.55 14.5067 16 14.9567 16 15.5067C16 16.0567 15.55 16.5067 15 16.5067Z" fill="#E8A05D"/>
</g>
<defs>
<clipPath id="clip0_476_53">
<rect width="24" height="24" fill="white" transform="translate(0 0.506683)"/>
</clipPath>
</defs>
</svg>
