<svg width="104" height="130" viewBox="0 0 104 130" fill="none" xmlns="http://www.w3.org/2000/svg">
<rect x="14" y="30" width="2" height="10" fill="#E80000"/>
<rect x="8" y="40" width="14" height="80" fill="#E80000"/>
<rect x="14" y="120" width="2" height="10" fill="#E80000"/>
<rect x="36" width="2" height="5" fill="#2F4CE5"/>
<rect x="30" y="5" width="14" height="10" fill="#2F4CE5"/>
<rect x="36" y="15" width="2" height="5" fill="#2F4CE5"/>
<rect x="58" y="24" width="2" height="10" fill="#2F4CE5"/>
<rect x="52" y="34" width="14" height="60" fill="#2F4CE5"/>
<rect x="58" y="94" width="2" height="10" fill="#2F4CE5"/>
<rect x="0.25" y="77.25" width="102.5" height="0.5" stroke="black" stroke-width="0.5" stroke-dasharray="2 2"/>
<path d="M80.952 66.5L80.652 68.252C80.836 68.22 81.012 68.2 81.18 68.192C81.356 68.176 81.524 68.168 81.684 68.168C82.164 68.168 82.588 68.24 82.956 68.384C83.324 68.528 83.632 68.728 83.88 68.984C84.128 69.232 84.316 69.528 84.444 69.872C84.572 70.208 84.636 70.576 84.636 70.976C84.636 71.456 84.548 71.896 84.372 72.296C84.204 72.696 83.968 73.04 83.664 73.328C83.36 73.608 83 73.828 82.584 73.988C82.168 74.14 81.72 74.216 81.24 74.216C80.688 74.216 80.176 74.108 79.704 73.892C79.232 73.676 78.844 73.424 78.54 73.136L79.38 71.912C79.66 72.144 79.96 72.348 80.28 72.524C80.6 72.7 80.952 72.788 81.336 72.788C81.888 72.788 82.308 72.632 82.596 72.32C82.884 72 83.028 71.576 83.028 71.048C83.028 70.568 82.888 70.192 82.608 69.92C82.328 69.648 81.912 69.52 81.36 69.536C81.136 69.552 80.916 69.584 80.7 69.632C80.484 69.672 80.268 69.732 80.052 69.812L79.044 69.512C79.228 68.352 79.38 67.412 79.5 66.692C79.628 65.964 79.724 65.408 79.788 65.024H84.324V66.5H80.952ZM92.0484 69.548C92.0484 70.34 91.9644 71.028 91.7964 71.612C91.6284 72.188 91.3924 72.668 91.0884 73.052C90.7924 73.428 90.4404 73.708 90.0324 73.892C89.6244 74.076 89.1804 74.168 88.7004 74.168C88.2364 74.168 87.8004 74.076 87.3924 73.892C86.9924 73.708 86.6404 73.428 86.3364 73.052C86.0404 72.668 85.8084 72.188 85.6404 71.612C85.4724 71.028 85.3884 70.34 85.3884 69.548C85.3884 68.748 85.4724 68.06 85.6404 67.484C85.8084 66.9 86.0404 66.42 86.3364 66.044C86.6404 65.66 86.9924 65.376 87.3924 65.192C87.8004 65.008 88.2364 64.916 88.7004 64.916C89.1804 64.916 89.6244 65.008 90.0324 65.192C90.4404 65.376 90.7924 65.66 91.0884 66.044C91.3924 66.42 91.6284 66.9 91.7964 67.484C91.9644 68.06 92.0484 68.748 92.0484 69.548ZM90.3684 69.548C90.3684 68.908 90.3204 68.38 90.2244 67.964C90.1364 67.54 90.0164 67.208 89.8644 66.968C89.7124 66.72 89.5324 66.548 89.3244 66.452C89.1244 66.348 88.9164 66.296 88.7004 66.296C88.4924 66.296 88.2884 66.348 88.0884 66.452C87.8964 66.548 87.7244 66.72 87.5724 66.968C87.4204 67.208 87.2964 67.54 87.2004 67.964C87.1124 68.38 87.0684 68.908 87.0684 69.548C87.0684 70.18 87.1124 70.704 87.2004 71.12C87.2964 71.536 87.4204 71.868 87.5724 72.116C87.7244 72.364 87.8964 72.536 88.0884 72.632C88.2884 72.728 88.4924 72.776 88.7004 72.776C88.9164 72.776 89.1244 72.728 89.3244 72.632C89.5324 72.536 89.7124 72.364 89.8644 72.116C90.0164 71.868 90.1364 71.536 90.2244 71.12C90.3204 70.704 90.3684 70.18 90.3684 69.548ZM92.7529 67.172C92.7529 66.82 92.8049 66.512 92.9089 66.248C93.0129 65.976 93.1609 65.748 93.3529 65.564C93.5449 65.38 93.7729 65.24 94.0369 65.144C94.3009 65.048 94.5889 65 94.9009 65C95.2129 65 95.5009 65.044 95.7649 65.132C96.0369 65.22 96.2689 65.352 96.4609 65.528C96.6609 65.704 96.8169 65.924 96.9289 66.188C97.0409 66.444 97.0969 66.744 97.0969 67.088V67.244C97.0969 67.596 97.0409 67.908 96.9289 68.18C96.8169 68.444 96.6609 68.668 96.4609 68.852C96.2689 69.036 96.0369 69.176 95.7649 69.272C95.5009 69.36 95.2129 69.404 94.9009 69.404C94.5889 69.404 94.3009 69.36 94.0369 69.272C93.7729 69.176 93.5449 69.04 93.3529 68.864C93.1609 68.688 93.0129 68.468 92.9089 68.204C92.8049 67.932 92.7529 67.624 92.7529 67.28V67.172ZM101.201 65.06L95.4409 74H93.9649L99.7849 65.06H101.201ZM95.7649 67.112C95.7649 66.68 95.6929 66.376 95.5489 66.2C95.4129 66.016 95.2089 65.924 94.9369 65.924C94.6409 65.924 94.4169 66.012 94.2649 66.188C94.1129 66.364 94.0369 66.656 94.0369 67.064L94.0249 67.268C94.0249 67.7 94.0929 68.008 94.2289 68.192C94.3729 68.368 94.5969 68.456 94.9009 68.456C95.2049 68.456 95.4209 68.368 95.5489 68.192C95.6849 68.008 95.7529 67.7 95.7529 67.268L95.7649 67.112ZM98.3209 71.6C98.3209 70.896 98.5169 70.36 98.9089 69.992C99.3089 69.624 99.8249 69.44 100.457 69.44C100.769 69.44 101.057 69.484 101.321 69.572C101.585 69.66 101.813 69.792 102.005 69.968C102.205 70.136 102.361 70.352 102.473 70.616C102.585 70.872 102.641 71.172 102.641 71.516V71.672C102.641 72.016 102.585 72.324 102.473 72.596C102.361 72.86 102.205 73.084 102.005 73.268C101.813 73.452 101.585 73.592 101.321 73.688C101.057 73.776 100.769 73.82 100.457 73.82C99.8249 73.82 99.3089 73.644 98.9089 73.292C98.5169 72.932 98.3209 72.404 98.3209 71.708V71.6ZM101.321 71.54C101.321 71.108 101.249 70.804 101.105 70.628C100.969 70.452 100.765 70.364 100.493 70.364C100.197 70.364 99.9729 70.452 99.8209 70.628C99.6689 70.796 99.5929 71.084 99.5929 71.492L99.5809 71.696C99.5809 72.128 99.6489 72.432 99.7849 72.608C99.9289 72.784 100.153 72.872 100.457 72.872C100.761 72.872 100.977 72.784 101.105 72.608C101.241 72.432 101.309 72.128 101.309 71.696L101.321 71.54Z" fill="black"/>
<rect x="19" y="15" width="10" height="1" fill="black"/>
<rect x="23.5" y="16" width="1" height="23" fill="black"/>
<rect x="19" y="39" width="10" height="1" fill="black"/>
<path d="M14.936 15.944H13.436V13.688H12.488V15.872H11.012V10.172H12.488V12.416H13.436V9.98H14.936V15.944ZM10.28 10.64C10.28 12.024 9.956 13.184 9.308 14.12C8.66 15.056 7.636 15.804 6.236 16.364L5.468 15.212C6.468 14.828 7.216 14.368 7.712 13.832C8.216 13.296 8.524 12.652 8.636 11.9H5.996V10.64H10.28ZM14.936 16.388V20.864H7.46V16.388H9.02V17.396H13.376V16.388H14.936ZM9.02 18.62V19.628H13.376V18.62H9.02Z" fill="black"/>
</svg>
